# xmcd
#
# Track frame offsets: 
#        150
#        11234
#        26031
#        41109
#        52885
#        67786
#        80460
#        93419
#        107192
#        122027
#        135225
#        150176
#        161191
#        176052
#        190935
#        205556
#        217114
#        229101
#        243185
#
# Disc length: 3401 seconds
#
# Revision: 2
# Processed by: cddbd v1.5.2PL0 Copyright (c) Steve Scherf et al.
# Submitted via: ExactAudioCopy v1.3
#
DISCID=f80d4713
DTITLE=Benny Goodman - Goodman - Solo Flight (The King of Swing)
DYEAR=2001
DGENRE=Swing
TTITLE0=You´re dangerous (NY 28.1.41)
TTITLE1=This is new (NY 28.1.41)
TTITLE2=Perfidia (NY 28.1.41)
TTITLE3=Lazy river (NY 19.2.41)
TTITLE4=Yours (NY 19.2.41)
TTITLE5=Solo Flight (NY 4.3.41)
TTITLE6=Oh! look at me now (NY 4.3.41)
TTITLE7=Amapola (NY 27.3.41)
TTITLE8=Smoke gets in Your eyes (NY 4.6.41)
TTITLE9=Clarinet a la king (NY 2.10.41)
TTITLE10=Not nice (NY 10.10.41)
TTITLE11=The darktown strutter´s ball (NY 15.1.42)
TTITLE12=You´re easy to dance with (NY 14.5.42)
TTITLE13=Six flats unfurnished (NY 27.7.42)
TTITLE14=Why don´t you do right? (NY 27.7.42)
TTITLE15=After you´ve gone (NY 27.7.42)
TTITLE16=Mission to Moscow (NY 30.7.42)
TTITLE17=Love walked in (NY 17.3.45)
TTITLE18=Clarinade (NY 16.5.45)
EXTD=
EXTT0=
EXTT1=
EXTT2=
EXTT3=
EXTT4=
EXTT5=
EXTT6=
EXTT7=
EXTT8=
EXTT9=
EXTT10=
EXTT11=
EXTT12=
EXTT13=
EXTT14=
EXTT15=
EXTT16=
EXTT17=
EXTT18=
PLAYORDER=
